#!OML:ASF I:\Actors\actors\Patient Classification 1\Patient 1\Session 1\Subject1.ASF
:FULLY-SPECIFIED
:DEGREES
729
root 0.841377 17.4575 9.73463 9.44946 -0.695278 -8.74383
lowerback 0.166564 4.35907 7.2589
upperback -8.90332 6.25057 -0.341666
thorax -8.74016 2.52629 -4.83531
lowerneck -10.5077 4.49713 7.3651
upperneck 35.2367 5.48808 -1.14521
head 14.021 3.29317 -0.914701
rclavicle 3.18055e-014 -2.22639e-014
rhumerus -30.624 44.2577 -110.487
rradius 98.4827
rwrist 14.8382
rhand -11.4459 -37.6452
rfingers 7.12502
rthumb 14.591 -787.112
lclavicle 3.18055e-014 -2.22639e-014
lhumerus -50.3436 -9.48758 96.5152
lradius 113.01
lwrist 64.0497
lhand -29.2667 7.84367
lfingers 7.12502
lthumb -2.60925 37.8075
rfemur -2.1653 23.2769 25.3235
rtibia 3.46636
rfoot -14.2766 -27.5794
rtoes 0.407013
lfemur 6.51811 -41.3645 -12.7437
ltibia -3.85901
lfoot -20.0802 48.9389
ltoes 5.2323
730
root 0.841747 17.4546 9.73806 9.56918 -0.607636 -8.7534
lowerback 0.211902 4.335 7.47339
upperback -9.04521 6.22815 -0.526236
thorax -8.89091 2.47959 -5.16029
lowerneck -10.7602 4.38633 7.2932
upperneck 35.0993 5.13978 -0.669678
head 13.9796 3.18945 -0.75983
rclavicle -3.27995e-014 1.98785e-014
rhumerus -31.7321 43.2642 -110.967
rradius 99.0512
rwrist 14.1715
rhand -10.3125 -38.113
rfingers 7.12502
rthumb 15.6827 -787.497
lclavicle -3.27995e-014 1.98785e-014
lhumerus -50.7387 -9.78693 96.4058
lradius 112.88
lwrist 63.2677
lhand -29.5579 9.49065
lfingers 7.12502
lthumb -2.89049 39.4508
rfemur -2.35231 23.1124 25.2629
rtibia 3.53077
rfoot -14.2413 -27.5057
rtoes 0.315333
lfemur 6.38205 -41.4824 -12.6361
ltibia -3.91973
lfoot -20.0456 49.0248
ltoes 5.27512
731
root 0.849717 17.4442 9.73432 9.91061 -0.689197 -8.84394
lowerback -0.031201 4.32896 7.14044
upperback -9.17818 6.21415 -0.182743
thorax -8.96433 2.50818 -4.5982
lowerneck -10.9799 4.28616 6.8581
upperneck 34.9627 5.02642 -0.534165
head 13.9368 3.09676 -0.644771
rclavicle -5.52621e-014 -7.95139e-015
rhumerus -33.0776 41.9706 -110.963
rradius 99.6164
rwrist 12.9654
rhand -8.46419 -37.6567
rfingers 7.12502
rthumb 17.4622 -786.892
lclavicle -5.52621e-014 -7.95139e-015
lhumerus -51.0766 -9.41123 96.9478
lradius 112.621
lwrist 62.5789
lhand -28.6536 10.5301
lfingers 7.12502
lthumb -2.01718 40.5003
rfemur -2.98983 22.6514 25.0667
rtibia 3.77896
rfoot -14.0302 -26.9577
rtoes -0.267864
lfemur 5.9203 -41.6283 -12.325
ltibia -3.85808
lfoot -20.2443 49.2866
ltoes 5.52732
732
root 0.84104 17.4526 9.75134 9.54771 -0.120922 -8.7665
lowerback -0.069979 4.07334 6.85385
upperback -8.99927 5.85491 -0.0168199
thorax -8.82587 2.37093 -4.23502
lowerneck -11.0939 4.18637 6.67919
upperneck 34.6318 4.86078 -0.423978
head 13.7944 3.00928 -0.596739
rclavicle -3.13086e-014 -7.15625e-015
rhumerus -34.0239 40.4882 -111.046
rradius 100.107
rwrist 11.4955
rhand -6.41663 -37.4098
rfingers 7.12502
rthumb 19.4318 -786.459
lclavicle -3.13086e-014 -7.15625e-015
lhumerus -51.3163 -9.26898 97.1117
lradius 112.369
lwrist 62.5374
lhand -27.509 11.64
lfingers 7.12502
lthumb -0.911663 41.6178
rfemur -2.159 23.1071 25.3841
rtibia 3.39923
rfoot -14.3727 -27.9171
rtoes 0.542557
lfemur 6.35396 -41.8116 -12.5763
ltibia -3.96713
lfoot -19.7508 49.0276
ltoes 4.95842
733
root 0.839758 17.454 9.76239 9.41177 0.209819 -8.6884
lowerback -0.251352 3.89481 6.68306
upperback -8.8916 5.59317 0.0988872
thorax -8.65386 2.27019 -3.98528
lowerneck -11.2205 4.12396 6.54729
upperneck 34.3413 4.76143 -0.374549
head 13.6812 2.94916 -0.570224
rclavicle 5.13858e-014 3.97569e-014
rhumerus -34.982 39.2567 -111.24
rradius 100.473
rwrist 9.88136
rhand -4.59091 -37.4669
rfingers 7.12502
rthumb 21.1864 -786.329
lclavicle 5.13858e-014 3.97569e-014
lhumerus -51.5705 -9.11626 97.2227
lradius 112.095
lwrist 62.9475
lhand -26.3035 12.7224
lfingers 7.12502
lthumb 0.252657 42.7019
rfemur -1.78491 23.3518 25.4704
rtibia 3.19925
rfoot -14.6221 -28.4343
rtoes 1.22665
lfemur 6.59423 -42.2018 -12.8103
ltibia -4.03185
lfoot -19.8004 49.1034
ltoes 5.08777
734
root 0.842665 17.4518 9.77086 9.4282 0.405511 -8.67869
lowerback -0.527212 3.76285 6.61918
upperback -8.84862 5.39563 0.225094
thorax -8.48293 2.19183 -3.78315
lowerneck -11.3384 4.07226 6.41687
upperneck 34.1013 4.69746 -0.373368
head 13.5923 2.89925 -0.557425
rclavicle -2.59414e-014 1.43125e-014
rhumerus -35.9834 38.3601 -111.547
rradius 100.753
rwrist 8.11342
rhand -2.74189 -37.5615
rfingers 7.12502
rthumb 22.9617 -786.214
lclavicle -2.59414e-014 1.43125e-014
lhumerus -51.9205 -9.003 97.3552
lradius 111.876
lwrist 63.6769
lhand -25.2053 13.3048
lfingers 7.12502
lthumb 1.31332 43.2805
rfemur -1.69808 23.4421 25.4929
rtibia 3.12323
rfoot -14.7743 -28.6417
rtoes 1.65871
lfemur 6.65337 -42.5801 -12.89
ltibia -4.04908
lfoot -20.0252 49.2578
ltoes 5.38632
735
root 0.845426 17.4499 9.77856 9.4813 0.548103 -8.75877
lowerback -0.822942 3.68438 6.73472
upperback -8.82515 5.27294 0.29823
thorax -8.29583 2.13492 -3.73969
lowerneck -11.4371 3.99425 6.4242
upperneck 33.9071 4.59609 -0.470861
head 13.5265 2.83854 -0.61289
rclavicle -4.24405e-014 -9.54166e-015
rhumerus -36.7303 37.5329 -111.829
rradius 100.936
rwrist 6.5392
rhand -0.891413 -37.6353
rfingers 7.12502
rthumb 24.7363 -786.056
lclavicle -4.24405e-014 -9.54166e-015
lhumerus -52.3028 -9.02274 97.4518
lradius 111.784
lwrist 64.6577
lhand -24.0711 14.5224
lfingers 7.12502
lthumb 2.40865 44.4885
rfemur -1.69327 23.5078 25.5897
rtibia 3.09857
rfoot -14.8994 -28.7946
rtoes 1.84739
lfemur 6.71484 -42.9762 -12.8484
ltibia -4.11056
lfoot -20.2352 49.4946
ltoes 5.62217
736
root 0.848078 17.4485 9.78518 9.51109 0.613077 -8.82529
lowerback -0.967517 3.6325 6.84352
upperback -8.86735 5.20079 0.353992
thorax -8.26403 2.09443 -3.72846
lowerneck -11.4974 3.92278 6.50392
upperneck 33.8302 4.49919 -0.588109
head 13.5075 2.78866 -0.687375
rclavicle 4.90004e-014 1.51076e-014
rhumerus -37.3327 36.7073 -112.038
rradius 100.925
rwrist 5.13702
rhand 1.18724 -37.6013
rfingers 7.12502
rthumb 26.727 -785.734
lclavicle 4.90004e-014 1.51076e-014
lhumerus -52.7389 -9.02136 97.5976
lradius 111.71
lwrist 65.4784
lhand -22.7861 16.1709
lfingers 7.12502
lthumb 3.64965 46.1194
rfemur -1.68411 23.5827 25.6682
rtibia 3.09255
rfoot -15.0126 -28.911
rtoes 2.05845
lfemur 6.84076 -43.347 -12.8712
ltibia -4.18529
lfoot -20.4591 49.781
ltoes 5.83404
737
root 0.852018 17.4479 9.79163 9.54644 0.580191 -8.77555
lowerback -1.01578 3.58027 6.78619
upperback -8.96503 5.13472 0.429966
thorax -8.36265 2.06314 -3.61483
lowerneck -11.5335 3.88617 6.43547
upperneck 33.8247 4.45547 -0.583622
head 13.5081 2.76065 -0.679962
rclavicle -4.75095e-014 -1.66979e-014
rhumerus -37.956 36.1315 -112.293
rradius 100.81
rwrist 3.70879
rhand 3.53898 -37.6436
rfingers 7.12502
rthumb 28.9755 -785.412
lclavicle -4.75095e-014 -1.66979e-014
lhumerus -53.1868 -8.93929 97.8226
lradius 111.593
lwrist 66.0022
lhand -21.5395 17.3033
lfingers 7.12502
lthumb 4.85347 47.2278
rfemur -1.67293 23.6638 25.5968
rtibia 3.05629
rfoot -15.0426 -28.9551
rtoes 2.24847
lfemur 6.91396 -43.5149 -13.0159
ltibia -4.20704
lfoot -20.6629 49.9469
ltoes 6.05433
738
root 0.85724 17.447 9.79874 9.59283 0.489683 -8.66505
lowerback -1.18434 3.54846 6.89729
upperback -8.97301 5.07699 0.375484
thorax -8.26686 2.02797 -3.71867
lowerneck -11.672 3.87714 6.2172
upperneck 33.7999 4.39899 -0.334495
head 13.5109 2.73859 -0.550028
rclavicle -2.03754e-014 -2.8625e-014
rhumerus -38.3105 35.89 -112.664
rradius 100.632
rwrist 1.83837
rhand 5.49832 -37.7929
rfingers 7.12502
rthumb 30.8452 -785.224
lclavicle -2.03754e-014 -2.8625e-014
lhumerus -53.404 -9.00019 97.9206
lradius 111.461
lwrist 66.4491
lhand -20.502 17.9645
lfingers 7.12502
lthumb 5.85521 47.8636
rfemur -1.6576 23.7348 25.4445
rtibia 2.97522
rfoot -14.9587 -28.9702
rtoes 2.11224
lfemur 6.97925 -43.5733 -13.2272
ltibia -4.23466
lfoot -20.8171 50.0641
ltoes 6.23104
739
root 0.863374 17.4451 9.80481 9.63395 0.380383 -8.57623
lowerback -1.32209 3.52116 6.98671
upperback -8.98927 5.03204 0.386399
thorax -8.20468 2.00193 -3.74505
lowerneck -11.7503 3.87081 6.04972
upperneck 33.7957 4.41065 -0.292094
head 13.5191 2.72659 -0.501335
rclavicle -3.13086e-014 -1.59028e-014
rhumerus -38.6923 36.0164 -113.055
rradius 100.452
rwrist -0.491263
rhand 6.948 -38.0785
rfingers 7.12502
rthumb 32.2262 -785.239
lclavicle -3.13086e-014 -1.59028e-014
lhumerus -53.5945 -9.0358 98.1813
lradius 111.35
lwrist 66.8569
lhand -19.689 18.4273
lfingers 7.12502
lthumb 6.64008 48.3032
rfemur -1.62305 23.8919 25.3249
rtibia 2.88262
rfoot -14.9018 -29.061
rtoes 1.9736
lfemur 7.11333 -43.6991 -13.4545
ltibia -4.30658
lfoot -20.9505 50.265
ltoes 6.32778
740
root 0.870461 17.4434 9.80901 9.69831 0.204417 -8.50361
lowerback -1.4268 3.5359 7.06899
upperback -9.07489 5.05011 0.397145
thorax -8.23252 2.00229 -3.77543
lowerneck -11.6891 3.86932 6.04979
upperneck 33.8047 4.46154 -0.43497
head 13.5148 2.73037 -0.551463
rclavicle 2.92213e-014 9.54166e-015
rhumerus -39.1582 36.3355 -113.577
rradius 100.27
rwrist -2.59293
rhand 7.79107 -38.5938
rfingers 7.12502
rthumb 33.0284 -785.588
lclavicle 2.92213e-014 9.54166e-015
lhumerus -53.9332 -9.13906 98.5235
lradius 111.291
lwrist 67.4046
lhand -18.8506 18.7976
lfingers 7.12502
lthumb 7.44938 48.6464
rfemur -1.60928 24.1883 25.2128
rtibia 2.78039
rfoot -14.8656 -29.2087
rtoes 1.95991
lfemur 7.21265 -43.7192 -13.6206
ltibia -4.41305
lfoot -20.9426 50.4337
ltoes 6.32345
741
root 0.876014 17.4426 9.81382 9.76173 -0.129542 -8.42209
lowerback -1.53242 3.61726 7.14692
upperback -9.17209 5.1551 0.370155
thorax -8.25957 2.04403 -3.84654
lowerneck -11.6543 3.8876 5.97672
upperneck 33.9001 4.5142 -0.438042
head 13.5484 2.74521 -0.531935
rclavicle 3.85642e-014 3.97569e-014
rhumerus -39.6136 36.8473 -114.243
rradius 100.013
rwrist -4.03666
rhand 7.89096 -39.1054
rfingers 7.12502
rthumb 33.1233 -786.079
lclavicle 3.85642e-014 3.97569e-014
lhumerus -54.3046 -9.29077 98.8476
lradius 111.261
lwrist 68.1662
lhand -18.0797 19.2615
lfingers 7.12502
lthumb 8.19346 49.0826
rfemur -1.61264 24.4927 25.0689
rtibia 2.67545
rfoot -14.7496 -29.2319
rtoes 1.81892
lfemur 7.35692 -43.5993 -13.8366
ltibia -4.5267
lfoot -21.0139 50.6022
ltoes 6.39764
742
root 0.878335 17.4422 9.81861 9.78378 -0.606769 -8.38782
lowerback -1.60175 3.76129 7.26651
upperback -9.22899 5.346 0.340036
thorax -8.24945 2.12733 -3.94726
lowerneck -11.6393 3.9174 5.88574
upperneck 34.0265 4.58053 -0.417054
head 13.5992 2.76715 -0.496881
rclavicle 2.37548e-014 4.45278e-014
rhumerus -39.9592 37.6012 -114.92
rradius 99.7541
rwrist -5.11656
rhand 7.24371 -39.8604
rfingers 7.12502
rthumb 32.5076 -786.963
lclavicle 2.37548e-014 4.45278e-014
lhumerus -54.578 -9.46946 99.1342
lradius 111.252
lwrist 68.9462
lhand -17.954 19.8556
lfingers 7.12502
lthumb 8.31473 49.672
rfemur -1.60163 24.7369 24.9764
rtibia 2.61338
rfoot -14.6106 -29.0603
rtoes 1.65874
lfemur 7.75933 -43.815 -14.2529
ltibia -4.60792
lfoot -21.7787 51.1382
ltoes 7.09877
